<?xml version="1.0" encoding="UTF-8"?>
<svg id="Capa_2" data-name="Capa 2" xmlns="http://www.w3.org/2000/svg" viewBox="0 0 395.87 547.5">
  <defs>
    <style>
      .cls-1 {
        fill: #ffb3ff;
      }

      .cls-2 {
        fill: #e2cfff;
      }

      .cls-3 {
        fill: #e2e1b9;
      }
    </style>
  </defs>
  <g id="Capa_1-2" data-name="Capa 1">
    <g id="Estrellas_Luz">
      <path class="cls-2" d="M152.25,465.29l15.5-31.37-25.05-24.44c-3.82-3.73-.64-10.17,4.64-9.4l34.63,5.05,15.5-31.37c2.36-4.78,9.47-3.75,10.37,1.51l5.9,34.5,34.63,5.05c5.28.77,6.49,7.85,1.77,10.33l-30.98,16.27,5.9,34.5c.9,5.26-5.46,8.6-9.28,4.87l-25.05-24.44-30.98,16.27c-4.73,2.48-9.87-2.53-7.5-7.32Z"/>
      <path class="cls-1" d="M236.5,171.87l-5.22-32.11-32.15-4.96c-4.9-.76-5.97-7.34-1.56-9.61l28.92-14.89-5.22-32.11c-.8-4.9,5.14-7.95,8.66-4.46l23.1,22.91,28.92-14.89c4.41-2.27,9.15,2.43,6.92,6.86l-14.65,29.04,23.1,22.91c3.52,3.49.52,9.45-4.39,8.7l-32.15-4.96-14.65,29.04c-2.23,4.43-8.83,3.41-9.63-1.48Z"/>
      <path class="cls-3" d="M10.08,276.59l13.89-28.13L1.51,226.55c-3.43-3.34-.58-9.11,4.16-8.42l31.05,4.52,13.89-28.13c2.12-4.29,8.49-3.36,9.3,1.35l5.3,30.92,31.05,4.52c4.73.69,5.82,7.03,1.59,9.26l-27.77,14.6,5.3,30.92c.81,4.72-4.89,7.71-8.32,4.37l-22.46-21.9-27.77,14.6c-4.24,2.23-8.84-2.27-6.73-6.56Z"/>
      <path class="cls-2" d="M244.33,250.04l12.56-7.12-2.89-14.14c-.44-2.16,2.14-3.62,3.76-2.13l10.65,9.74,12.56-7.12c1.92-1.09,4.1.91,3.19,2.92l-5.98,13.14,10.65,9.74c1.62,1.49.4,4.18-1.79,3.93l-14.34-1.62-5.98,13.14c-.91,2-3.85,1.67-4.29-.49l-2.89-14.14-14.34-1.62c-2.19-.25-2.78-3.15-.86-4.23Z"/>
      <path class="cls-3" d="M12.55,33.36l12.87-11.2-6.68-15.7c-1.02-2.4,1.62-4.69,3.85-3.36l14.63,8.78L50.11.67c1.96-1.71,4.97.09,4.38,2.63l-3.83,16.63,14.63,8.78c2.23,1.34,1.45,4.75-1.15,4.98l-17,1.5-3.83,16.63c-.58,2.54-4.07,2.84-5.09.45l-6.68-15.7-17,1.5c-2.59.23-3.96-2.99-2-4.7Z"/>
      <path class="cls-3" d="M280.37,353.71l6.3-7.75-5.43-8.39c-.83-1.28.47-2.87,1.89-2.32l9.32,3.6,6.3-7.75c.96-1.18,2.87-.44,2.79,1.08l-.54,9.98,9.32,3.6c1.42.55,1.31,2.6-.16,2.99l-9.66,2.57-.54,9.98c-.08,1.52-2.06,2.05-2.89.77l-5.43-8.39-9.66,2.57c-1.47.39-2.59-1.33-1.63-2.51Z"/>
      <path class="cls-3" d="M348.64,99l6.3-7.75-5.43-8.39c-.83-1.28.47-2.87,1.89-2.32l9.32,3.6,6.3-7.75c.96-1.18,2.87-.44,2.79,1.08l-.54,9.98,9.32,3.6c1.42.55,1.31,2.6-.16,2.99l-9.66,2.57-.54,9.98c-.08,1.52-2.06,2.05-2.89.77l-5.43-8.39-9.66,2.57c-1.47.39-2.59-1.33-1.63-2.51Z"/>
      <path class="cls-2" d="M310.96,455.97l6.3-7.75-5.43-8.39c-.83-1.28.47-2.87,1.89-2.32l9.32,3.6,6.3-7.75c.96-1.18,2.87-.44,2.79,1.08l-.54,9.98,9.32,3.6c1.42.55,1.31,2.6-.16,2.99l-9.66,2.57-.54,9.98c-.08,1.52-2.06,2.05-2.89.77l-5.43-8.39-9.66,2.57c-1.47.39-2.59-1.33-1.63-2.51Z"/>
      <path class="cls-3" d="M141.94,538.45l6.3-7.75-5.43-8.39c-.83-1.28.47-2.87,1.89-2.32l9.32,3.6,6.3-7.75c.96-1.18,2.87-.44,2.79,1.08l-.54,9.98,9.32,3.6c1.42.55,1.31,2.6-.16,2.99l-9.66,2.57-.54,9.98c-.08,1.52-2.06,2.05-2.89.77l-5.43-8.39-9.66,2.57c-1.47.39-2.59-1.33-1.63-2.51Z"/>
      <path class="cls-1" d="M158.35,317.44l7.2-6.93-4.37-8.99c-.67-1.37.81-2.79,2.16-2.08l8.82,4.7,7.2-6.93c1.1-1.06,2.91-.09,2.64,1.41l-1.75,9.84,8.82,4.7c1.34.72.99,2.74-.52,2.95l-9.9,1.38-1.75,9.84c-.27,1.5-2.3,1.78-2.96.41l-4.37-8.99-9.9,1.38c-1.51.21-2.41-1.63-1.31-2.69Z"/>
      <path class="cls-3" d="M153.26,206.48l9.58-2.84.26-9.99c.04-1.52,2.01-2.11,2.87-.85l5.66,8.23,9.58-2.84c1.46-.43,2.62,1.26,1.7,2.47l-6.08,7.93,5.66,8.23c.86,1.26-.38,2.88-1.82,2.37l-9.42-3.33-6.08,7.93c-.93,1.21-2.86.53-2.82-1l.26-9.99-9.42-3.33c-1.44-.51-1.38-2.56.08-2.99Z"/>
      <path class="cls-2" d="M51.76,394.14l7.64-9.89-7.04-10.32c-1.07-1.57.49-3.6,2.29-2.96l11.77,4.21,7.64-9.89c1.17-1.51,3.58-.64,3.52,1.26l-.37,12.49,11.77,4.21c1.79.64,1.72,3.21-.11,3.74l-11.99,3.51-.37,12.49c-.06,1.91-2.52,2.63-3.59,1.05l-7.04-10.32-11.99,3.51c-1.83.54-3.27-1.58-2.11-3.09Z"/>
      <path class="cls-1" d="M354.77,235.3l6.06-13.1-10.59-9.81c-1.61-1.5-.37-4.18,1.81-3.92l14.33,1.71,6.06-13.1c.92-2,3.86-1.65,4.29.51l2.8,14.16,14.33,1.71c2.19.26,2.76,3.17.84,4.24l-12.6,7.04,2.8,14.16c.43,2.16-2.16,3.6-3.77,2.11l-10.59-9.81-12.6,7.04c-1.92,1.07-4.09-.94-3.17-2.94Z"/>
      <path class="cls-2" d="M133.09,27.22l13.71-4.53-.07-14.43c-.01-2.2,2.8-3.13,4.1-1.36l8.54,11.64,13.71-4.53c2.09-.69,3.84,1.7,2.56,3.48l-8.43,11.72,8.54,11.64c1.3,1.77-.43,4.18-2.52,3.51l-13.75-4.39-8.43,11.72c-1.29,1.79-4.11.89-4.12-1.32l-.07-14.43-13.75-4.39c-2.1-.67-2.11-3.63-.02-4.32Z"/>
      <path class="cls-1" d="M2.75,488.2l19.56-6.46-.1-20.6c-.02-3.14,4-4.47,5.86-1.93l12.19,16.61,19.56-6.46c2.98-.99,5.48,2.42,3.65,4.97l-12.03,16.72,12.19,16.61c1.86,2.53-.61,5.96-3.6,5.01l-19.62-6.27-12.03,16.72c-1.83,2.55-5.86,1.26-5.88-1.88l-.1-20.6-19.62-6.27c-2.99-.96-3.01-5.18-.03-6.17Z"/>
      <path class="cls-1" d="M85.98,140.86l6.06-13.1-10.59-9.81c-1.61-1.5-.37-4.18,1.81-3.92l14.33,1.71,6.06-13.1c.92-2,3.86-1.65,4.29.51l2.8,14.16,14.33,1.71c2.19.26,2.76,3.17.84,4.24l-12.6,7.04,2.8,14.16c.43,2.16-2.16,3.6-3.77,2.11l-10.59-9.81-12.6,7.04c-1.92,1.07-4.09-.94-3.17-2.94Z"/>
    </g>
  </g>
</svg>