<?xml version="1.0" encoding="UTF-8"?>
<svg id="Capa_2" data-name="Capa 2" xmlns="http://www.w3.org/2000/svg" viewBox="0 0 394.08 545.02">
  <defs>
    <style>
      .cls-1 {
        fill: #c8ec85;
      }
    </style>
  </defs>
  <g id="Capa_1-2" data-name="Capa 1">
    <g id="Estrellas_Noche">
      <path class="cls-1" d="M151.56,463.18l15.43-31.23-24.93-24.33c-3.8-3.71-.64-10.12,4.62-9.35l34.47,5.03,15.43-31.23c2.35-4.76,9.43-3.73,10.32,1.51l5.87,34.34,34.47,5.03c5.26.77,6.46,7.81,1.76,10.28l-30.84,16.2,5.87,34.34c.9,5.24-5.43,8.56-9.24,4.85l-24.93-24.33-30.84,16.2c-4.7,2.47-9.82-2.52-7.47-7.29Z"/>
      <path class="cls-1" d="M235.43,171.09l-5.2-31.96-32-4.94c-4.88-.75-5.95-7.31-1.56-9.57l28.79-14.82-5.2-31.96c-.79-4.87,5.12-7.92,8.62-4.44l22.99,22.8,28.79-14.82c4.39-2.26,9.11,2.42,6.88,6.83l-14.58,28.91,22.99,22.8c3.51,3.48.51,9.41-4.37,8.66l-32-4.94-14.58,28.91c-2.22,4.41-8.79,3.4-9.58-1.48Z"/>
      <path class="cls-1" d="M10.04,275.34l13.83-28.01L1.5,225.53c-3.41-3.33-.57-9.07,4.14-8.39l30.91,4.49,13.83-28.01c2.11-4.27,8.45-3.35,9.26,1.35l5.28,30.78,30.91,4.49c4.71.69,5.8,7,1.58,9.22l-27.65,14.53,5.28,30.78c.8,4.69-4.87,7.68-8.28,4.35l-22.36-21.8-27.65,14.53c-4.22,2.22-8.8-2.26-6.7-6.53Z"/>
      <path class="cls-1" d="M243.22,248.91l12.5-7.08-2.87-14.08c-.44-2.15,2.13-3.6,3.74-2.12l10.6,9.7,12.5-7.08c1.91-1.08,4.08.91,3.17,2.9l-5.95,13.08,10.6,9.7c1.62,1.48.4,4.16-1.78,3.92l-14.28-1.62-5.95,13.08c-.91,1.99-3.84,1.66-4.28-.48l-2.87-14.08-14.28-1.62c-2.18-.25-2.77-3.14-.86-4.22Z"/>
      <path class="cls-1" d="M12.5,33.21l12.81-11.15-6.65-15.63c-1.01-2.38,1.62-4.67,3.84-3.34l14.57,8.74L49.88.67c1.95-1.7,4.94.09,4.36,2.62l-3.81,16.56,14.57,8.74c2.22,1.33,1.44,4.73-1.14,4.96l-16.92,1.49-3.81,16.56c-.58,2.52-4.05,2.83-5.07.45l-6.65-15.63-16.92,1.49c-2.58.23-3.94-2.98-1.99-4.68Z"/>
      <path class="cls-1" d="M279.1,352.11l6.28-7.72-5.4-8.35c-.82-1.27.46-2.86,1.88-2.31l9.28,3.58,6.28-7.72c.96-1.18,2.86-.44,2.78,1.07l-.54,9.93,9.28,3.58c1.42.55,1.3,2.58-.16,2.97l-9.61,2.56-.54,9.93c-.08,1.51-2.06,2.04-2.88.77l-5.4-8.35-9.61,2.56c-1.47.39-2.57-1.32-1.62-2.5Z"/>
      <path class="cls-1" d="M347.06,98.55l6.28-7.72-5.4-8.35c-.82-1.27.46-2.86,1.88-2.31l9.28,3.58,6.28-7.72c.96-1.18,2.86-.44,2.78,1.07l-.54,9.93,9.28,3.58c1.42.55,1.3,2.58-.16,2.97l-9.61,2.56-.54,9.93c-.08,1.51-2.06,2.04-2.88.77l-5.4-8.35-9.61,2.56c-1.47.39-2.57-1.32-1.62-2.5Z"/>
      <path class="cls-1" d="M309.55,453.91l6.28-7.72-5.4-8.35c-.82-1.27.46-2.86,1.88-2.31l9.28,3.58,6.28-7.72c.96-1.18,2.86-.44,2.78,1.07l-.54,9.93,9.28,3.58c1.42.55,1.3,2.58-.16,2.97l-9.61,2.56-.54,9.93c-.08,1.51-2.06,2.04-2.88.77l-5.4-8.35-9.61,2.56c-1.47.39-2.57-1.32-1.62-2.5Z"/>
      <path class="cls-1" d="M141.3,536.01l6.28-7.72-5.4-8.35c-.82-1.27.46-2.86,1.88-2.31l9.28,3.58,6.28-7.72c.96-1.18,2.86-.44,2.78,1.07l-.54,9.93,9.28,3.58c1.42.55,1.3,2.58-.16,2.97l-9.61,2.56-.54,9.93c-.08,1.51-2.06,2.04-2.88.77l-5.4-8.35-9.61,2.56c-1.47.39-2.57-1.32-1.62-2.5Z"/>
      <path class="cls-1" d="M157.63,316l7.17-6.9-4.35-8.95c-.66-1.36.81-2.78,2.15-2.07l8.78,4.68,7.17-6.9c1.09-1.05,2.89-.09,2.63,1.4l-1.74,9.79,8.78,4.68c1.34.71.98,2.72-.52,2.93l-9.85,1.37-1.74,9.79c-.27,1.49-2.29,1.78-2.95.41l-4.35-8.95-9.85,1.37c-1.5.21-2.4-1.63-1.3-2.68Z"/>
      <path class="cls-1" d="M152.57,205.54l9.54-2.83.26-9.95c.04-1.52,2-2.1,2.86-.85l5.64,8.2,9.54-2.83c1.45-.43,2.61,1.25,1.69,2.45l-6.05,7.89,5.64,8.2c.86,1.25-.38,2.87-1.81,2.36l-9.38-3.32-6.05,7.89c-.92,1.2-2.85.52-2.81-.99l.26-9.95-9.38-3.32c-1.43-.51-1.38-2.55.08-2.98Z"/>
      <path class="cls-1" d="M51.53,392.35l7.61-9.84-7.01-10.28c-1.07-1.57.49-3.59,2.28-2.95l11.71,4.19,7.61-9.84c1.16-1.5,3.56-.64,3.51,1.26l-.37,12.44,11.71,4.19c1.79.64,1.71,3.19-.11,3.72l-11.94,3.49-.37,12.44c-.06,1.9-2.51,2.61-3.58,1.05l-7.01-10.28-11.94,3.49c-1.82.53-3.26-1.58-2.1-3.08Z"/>
      <path class="cls-1" d="M353.17,234.23l6.03-13.04-10.54-9.76c-1.61-1.49-.37-4.17,1.81-3.91l14.27,1.7,6.03-13.04c.92-1.99,3.85-1.64,4.27.51l2.79,14.09,14.27,1.7c2.18.26,2.75,3.15.84,4.22l-12.54,7.01,2.79,14.09c.43,2.15-2.15,3.59-3.76,2.1l-10.54-9.76-12.54,7.01c-1.91,1.07-4.08-.93-3.16-2.92Z"/>
      <path class="cls-1" d="M132.49,27.1l13.64-4.51-.07-14.37c-.01-2.19,2.79-3.12,4.09-1.35l8.5,11.58,13.64-4.51c2.08-.69,3.83,1.69,2.55,3.47l-8.39,11.66,8.5,11.58c1.3,1.77-.43,4.16-2.51,3.49l-13.69-4.37-8.39,11.66c-1.28,1.78-4.09.88-4.1-1.31l-.07-14.37-13.69-4.37c-2.09-.67-2.1-3.62-.02-4.3Z"/>
      <path class="cls-1" d="M2.73,485.98l19.47-6.43-.1-20.51c-.01-3.13,3.98-4.45,5.83-1.93l12.13,16.53,19.47-6.43c2.97-.98,5.46,2.41,3.63,4.95l-11.97,16.65,12.13,16.53c1.85,2.52-.61,5.94-3.59,4.99l-19.53-6.24-11.97,16.65c-1.83,2.54-5.83,1.26-5.85-1.87l-.1-20.51-19.53-6.24c-2.98-.95-3-5.16-.03-6.14Z"/>
      <path class="cls-1" d="M85.59,140.23l6.03-13.04-10.54-9.76c-1.61-1.49-.37-4.17,1.81-3.91l14.27,1.7,6.03-13.04c.92-1.99,3.85-1.64,4.27.51l2.79,14.09,14.27,1.7c2.18.26,2.75,3.15.84,4.22l-12.54,7.01,2.79,14.09c.43,2.15-2.15,3.59-3.76,2.1l-10.54-9.76-12.54,7.01c-1.91,1.07-4.08-.93-3.16-2.92Z"/>
    </g>
  </g>
</svg>